<?xml version="1.0" encoding="iso-8859-1"?>
<!-- Uploaded to: SVG Repo, www.svgrepo.com, Generator: SVG Repo Mixer Tools -->
<svg height="800px" width="800px" version="1.1" id="Layer_1" xmlns="http://www.w3.org/2000/svg" xmlns:xlink="http://www.w3.org/1999/xlink" 
	 viewBox="0 0 512 512" xml:space="preserve">
<path style="fill:#FFD782;" d="M414.897,229.517C414.897,194.207,406.069,0,256,0S97.103,194.207,97.103,229.517
	c0,79.448-26.483,114.759-26.483,114.759c52.966,61.793,141.241,19.089,141.241,0H256h44.138c0,19.089,88.276,61.793,141.241,0
	C441.379,344.276,414.897,308.966,414.897,229.517z"/>
<path style="fill:#E6AF78;" d="M317.793,342.844v-42.706H194.207v42.706c0,11.399-7.294,21.519-18.109,25.123l-84.126,28.042
	c-18.023,6.008-30.179,22.875-30.179,41.873v56.463c0,9.751,7.904,17.655,17.655,17.655h353.103c9.751,0,17.655-7.904,17.655-17.655
	v-56.463c0-18.998-12.157-35.865-30.18-41.873l-84.126-28.042C325.087,364.362,317.793,354.242,317.793,342.844z"/>
<path style="fill:#D29B6E;" d="M194.207,342.844c0,10.685-6.453,20.173-16.161,24.298c98.92,16.858,139.72-53.762,139.72-53.762
	l0.028-0.019v-13.223H194.207V342.844z"/>
<path style="fill:#F0C087;" d="M141.241,105.931v38.061c0,15.816,0.607,31.625,1.82,47.393l5.087,66.129
	c1.216,15.807,9.448,30.238,22.435,39.329l53.308,37.315c9.407,6.585,20.612,10.118,32.095,10.118h0.026
	c11.482,0,22.688-3.532,32.095-10.118l53.308-37.315c12.988-9.091,21.22-23.522,22.435-39.329l5.087-66.129
	c1.213-15.768,1.821-31.578,1.821-47.393v-38.061H141.241z"/>
<g>
	<path style="fill:#E6AF78;" d="M370.097,105.931H141.241v38.063c0,4.905,0.166,9.806,0.282,14.709l0,0v0.003
		c0.14,5.895,0.364,11.785,0.673,17.673v0.003v0.001c0.263,5.002,0.481,10.006,0.865,15.001l5.087,66.129
		c1.216,15.807,9.449,30.238,22.436,39.329l53.308,37.315c9.407,6.584,20.612,10.116,32.095,10.116
		c-14.166,0-29.735-24.384-39.503-42.876c-6.435-12.181-9.869-25.684-10.126-39.458l-1.491-79.928
		c-0.118-6.356,4.487-11.763,10.75-12.85c47.34-8.216,84.919-21.641,106.401-31.126c17.03,28.15,39.46,36.57,42.368,37.564
		l2.777,0.949h2.631c0.31-5.882,0.536-11.766,0.679-17.655L370.097,105.931z"/>
	<path style="fill:#E6AF78;" d="M124.141,208.084l9.97,39.876c1.181,4.725,5.426,8.039,10.296,8.039l0,0
		c5.353,0,9.867-3.986,10.531-9.297l5.098-40.785c1.362-10.905-7.143-20.538-18.133-20.538h-0.034
		C129.981,185.379,121.258,196.552,124.141,208.084z"/>
</g>
<path style="fill:#F0C087;" d="M387.859,208.084l-9.97,39.876c-1.181,4.725-5.426,8.039-10.296,8.039l0,0
	c-5.353,0-9.867-3.986-10.531-9.297l-5.098-40.785c-1.362-10.905,7.143-20.538,18.133-20.538h0.034
	C382.019,185.379,390.742,196.552,387.859,208.084z"/>
<path style="fill:#FFD782;" d="M132.414,97.103v61.793c104.585,0,184.198-36.41,197.532-44.455
	c14.33,35.627,40.151,44.455,40.151,44.455h9.49V97.103H132.414z"/>
<g>
	<path style="fill:#FF6464;" d="M123.586,385.471V512h88.276c-43.235-43.235-62.935-109.976-68.717-133.048L123.586,385.471z"/>
	<path style="fill:#FF6464;" d="M388.414,385.471V512h-88.276c43.235-43.235,62.935-109.976,68.717-133.048L388.414,385.471z"/>
</g>
<path style="fill:#D29B6E;" d="M256,485.517L256,485.517c-4.875,0-8.828,3.953-8.828,8.828V512h17.655v-17.655
	C264.828,489.47,260.875,485.517,256,485.517z"/>
<path style="fill:#FFC36E;" d="M256,406.068c-41.607,0-75.807-17.265-83.171-41.985c-1.391-4.672,1.267-9.588,5.94-10.98
	c4.668-1.39,9.588,1.267,10.98,5.94c5.476,18.385,37.985,29.37,66.251,29.37s60.775-10.986,66.251-29.37
	c1.391-4.671,6.31-7.327,10.98-5.94c4.673,1.393,7.332,6.308,5.94,10.98C331.807,388.803,297.605,406.068,256,406.068z"/>
<circle style="fill:#FFD782;" cx="256" cy="423.724" r="26.483"/>
<circle style="fill:#FF6464;" cx="256" cy="423.724" r="13.241"/>
<path style="fill:#D2555A;" d="M263.448,432.552c-7.313,0-13.241-5.929-13.241-13.241c0-3.287,1.241-6.254,3.222-8.569
	c-6.081,1.198-10.67,6.55-10.67,12.983c0,7.313,5.929,13.241,13.241,13.241c4.026,0,7.59-1.836,10.019-4.672
	C265.186,432.457,264.329,432.552,263.448,432.552z"/>
</svg>