<!DOCTYPE svg PUBLIC "-//W3C//DTD SVG 1.1//EN" "http://www.w3.org/Graphics/SVG/1.1/DTD/svg11.dtd">
<!-- Uploaded to: SVG Repo, www.svgrepo.com, Transformed by: SVG Repo Mixer Tools -->
<svg width="800px" height="800px" viewBox="0 0 64 64" xmlns="http://www.w3.org/2000/svg" fill="#000000">
<g id="SVGRepo_bgCarrier" stroke-width="0"/>
<g id="SVGRepo_tracerCarrier" stroke-linecap="round" stroke-linejoin="round"/>
<g id="SVGRepo_iconCarrier"> <g id="flat"> <path d="M19,45v1a2.983,2.983,0,0,0,4.523,2.572A28.021,28.021,0,0,0,24.474,45Z" style="fill:#fec9a3"/> <path d="M39.526,45a28.021,28.021,0,0,0,.951,3.572A2.983,2.983,0,0,0,45,46V45Z" style="fill:#fec9a3"/> <path d="M32,10c-3.991,0-7-1.72-7-4s3.009-4,7-4,7,1.72,7,4S35.991,10,32,10Zm0-6c-3.052,0-5,1.185-5,2s1.948,2,5,2,5-1.185,5-2S35.052,4,32,4Z" style="fill:#e3e3e1"/> <path d="M19,38V35.018a11.126,11.126,0,0,1,.709-3.908l1.175-3.135a11.135,11.135,0,0,0,.493-6.091h0a10.583,10.583,0,0,1,.839-6.917A11,11,0,0,1,32,9h0a11,11,0,0,1,9.784,5.967,10.583,10.583,0,0,1,.839,6.917h0a11.125,11.125,0,0,0,.493,6.091l1.175,3.135A11.126,11.126,0,0,1,45,35.018V38" style="fill:#fd9a30"/> <path d="M44.291,31.11l-1.175-3.135a11.125,11.125,0,0,1-.493-6.091,10.583,10.583,0,0,0-.839-6.917A11,11,0,0,0,32,9h0a11.039,11.039,0,0,0-3,.416,11.027,11.027,0,0,1,6.784,5.551,10.583,10.583,0,0,1,.839,6.917,11.125,11.125,0,0,0,.493,6.091l1.175,3.135A11.126,11.126,0,0,1,39,35.018V38h6V35.018A11.126,11.126,0,0,0,44.291,31.11Z" style="fill:#f28e22"/> <path d="M25,17H39a0,0,0,0,1,0,0v5a7,7,0,0,1-7,7h0a7,7,0,0,1-7-7V17a0,0,0,0,1,0,0Z" style="fill:#fec9a3"/> <path d="M36,17v5a7,7,0,0,1-5.5,6.835A7.066,7.066,0,0,0,32,29h0a7,7,0,0,0,7-7V17Z" style="fill:#fec093"/> <rect height="2" style="fill:#7a4321" width="2" x="28" y="20"/> <rect height="2" style="fill:#7a4321" width="2" x="34" y="20"/> <path d="M32,26a3,3,0,0,1-3-3h2a1,1,0,0,0,2,0h2A3,3,0,0,1,32,26Z" style="fill:#e66b65"/> <path d="M45,35a6,6,0,0,0-6-6H25a6,6,0,0,0-6,6V45h5.474A27.936,27.936,0,0,1,23,50a27.968,27.968,0,0,0-2,10.385V61H43v-.615A27.968,27.968,0,0,0,41,50a27.936,27.936,0,0,1-1.474-5H45Z" style="fill:#ebebe8"/> <path d="M28,29v3a2,2,0,0,0,2,2h4a2,2,0,0,0,2-2V29Z" style="fill:#fec9a3"/> <path d="M13.141,21h-7.5a2.6,2.6,0,0,0-2.63,2.242A2.5,2.5,0,0,0,5.5,26H8L6.114,27.414a2.6,2.6,0,0,0-.758,3.372A2.5,2.5,0,0,0,9,31.5L11,30l-.431,1.725a2.3,2.3,0,0,0,1.718,2.794h0a2.3,2.3,0,0,0,2.559-1.212L16,31a5.264,5.264,0,0,0,3.021,3.545,11.129,11.129,0,0,1,.688-3.435l1.175-3.135L16.2,22.421A4,4,0,0,0,13.141,21Z" style="fill:#e3e3e1"/> <path d="M50.859,21h7.5a2.6,2.6,0,0,1,2.63,2.242A2.5,2.5,0,0,1,58.5,26H56l1.886,1.414a2.6,2.6,0,0,1,.758,3.372A2.5,2.5,0,0,1,55,31.5L53,30l.431,1.725a2.3,2.3,0,0,1-1.718,2.794h0a2.3,2.3,0,0,1-2.559-1.212L48,31a5.264,5.264,0,0,1-3.021,3.545,11.129,11.129,0,0,0-.688-3.435l-1.175-3.135L47.8,22.421A4,4,0,0,1,50.859,21Z" style="fill:#e3e3e1"/> <path d="M41.022,49.616a1,1,0,0,1-1.314-.577A28.81,28.81,0,0,1,38,39.24V36.625a1,1,0,0,1,1-1h0a1,1,0,0,1,1,1V39.24a26.84,26.84,0,0,0,1.582,9.1,1,1,0,0,1-.56,1.275Z" style="fill:#c9c9c8"/> <path d="M22.978,49.616h0a1,1,0,0,1-.56-1.275A26.84,26.84,0,0,0,24,39.24V36.625a1,1,0,0,1,1-1h0a1,1,0,0,1,1,1V39.24a28.81,28.81,0,0,1-1.708,9.8A1,1,0,0,1,22.978,49.616Z" style="fill:#c9c9c8"/> <rect height="2" rx="1" ry="1" style="fill:#c9c9c8" transform="translate(-29.357 72.93) rotate(-82.479)" width="16.559" x="18.637" y="52.209"/> <rect height="16.125" rx="1" ry="1" style="fill:#c9c9c8" transform="translate(-6.288 4.999) rotate(-7.125)" width="2" x="36" y="44.938"/> <rect height="16" rx="1" ry="1" style="fill:#c9c9c8" width="2" x="31" y="45"/> <rect height="2" rx="1" ry="1" style="fill:#c9c9c8" width="11" x="28" y="40"/> </g> </g>
</svg>