<svg width="16" height="16" viewBox="0 0 16 16" fill="none" xmlns="http://www.w3.org/2000/svg">
<g id="16/outline/Info/Attention">
<path id="Vector" d="M7.33301 10H8.66634V11.3334H7.33301V10ZM7.33301 4.66671H8.66634V8.66671H7.33301V4.66671ZM7.99967 1.33337C4.31301 1.33337 1.33301 4.33337 1.33301 8.00004C1.33301 9.76815 2.03539 11.4638 3.28563 12.7141C3.90469 13.3331 4.63961 13.8242 5.44845 14.1592C6.25729 14.4943 7.1242 14.6667 7.99967 14.6667C9.76778 14.6667 11.4635 13.9643 12.7137 12.7141C13.964 11.4638 14.6663 9.76815 14.6663 8.00004C14.6663 7.12456 14.4939 6.25765 14.1589 5.44882C13.8238 4.63998 13.3328 3.90505 12.7137 3.286C12.0947 2.66694 11.3597 2.17588 10.5509 1.84084C9.74206 1.50581 8.87515 1.33337 7.99967 1.33337ZM7.99967 13.3334C6.58519 13.3334 5.22863 12.7715 4.22844 11.7713C3.22824 10.7711 2.66634 9.41453 2.66634 8.00004C2.66634 6.58555 3.22824 5.229 4.22844 4.2288C5.22863 3.22861 6.58519 2.66671 7.99967 2.66671C9.41416 2.66671 10.7707 3.22861 11.7709 4.2288C12.7711 5.229 13.333 6.58555 13.333 8.00004C13.333 9.41453 12.7711 10.7711 11.7709 11.7713C10.7707 12.7715 9.41416 13.3334 7.99967 13.3334Z" fill="#F16865"/>
</g>
</svg>
