<svg width="16" height="16" viewBox="0 0 16 16" fill="none" xmlns="http://www.w3.org/2000/svg">
<path d="M1.33317 3.51333L2.1865 2.66667L13.3332 13.8133L12.4865 14.6667L10.4332 12.6133C9.6665 12.8667 8.85317 13 7.99984 13C4.6665 13 1.81984 10.9267 0.666504 8C1.1265 6.82667 1.85984 5.79333 2.79317 4.97333L1.33317 3.51333ZM7.99984 6C8.53027 6 9.03898 6.21071 9.41405 6.58579C9.78912 6.96086 9.99984 7.46957 9.99984 8C9.99984 8.23333 9.95984 8.46 9.8865 8.66667L7.33317 6.11333C7.53984 6.04 7.7665 6 7.99984 6ZM7.99984 3C11.3332 3 14.1798 5.07333 15.3332 8C14.7865 9.38667 13.8598 10.5867 12.6665 11.46L11.7198 10.5067C12.6265 9.88 13.3732 9.02667 13.8798 8C12.7798 5.76 10.5065 4.33333 7.99984 4.33333C7.27317 4.33333 6.55984 4.45333 5.89317 4.66667L4.8665 3.64667C5.8265 3.23333 6.8865 3 7.99984 3ZM2.11984 8C3.21984 10.24 5.49317 11.6667 7.99984 11.6667C8.45984 11.6667 8.91317 11.62 9.33317 11.5267L7.81317 10C6.85984 9.9 6.09984 9.14 5.99984 8.18667L3.73317 5.91333C3.07317 6.48 2.51984 7.18667 2.11984 8Z" fill="#212121"/>
</svg>
