<svg viewBox="0 0 552.8 205.3" xmlns="http://www.w3.org/2000/svg" xmlns:xlink="http://www.w3.org/1999/xlink"><style>.st0{fill:currentColor}.st1{clip-path:url(#SVGID_2_)}.st2{clip-path:url(#SVGID_4_)}.st3{clip-path:url(#SVGID_6_)}.st4{clip-path:url(#SVGID_8_)}.st5{fill:currentColor;stroke:#000;stroke-width:4;stroke-miterlimit:10}.st6{clip-path:url(#SVGID_8_)}.st6,.st7{fill:currentColor;stroke:currentColor;stroke-width:4;stroke-miterlimit:10}.st8,.st9{clip-path:url(#SVGID_10_)}.st9{fill:currentColor;stroke:#000;stroke-width:4;stroke-miterlimit:10}</style><g fill="currentColor"><path d="M285.4 68l26.3-1.7c.6 4.3 1.7 7.5 3.5 9.8 2.9 3.6 6.9 5.4 12.2 5.4 3.9 0 7-.9 9.1-2.8 2-1.5 3.2-3.9 3.2-6.4 0-2.4-1.1-4.7-3-6.2-2-1.8-6.7-3.6-14.1-5.2-12.1-2.7-20.8-6.3-25.9-10.9-5.1-4.3-8-10.6-7.8-17.3 0-4.6 1.4-9.2 4-13 3-4.3 7.1-7.7 12-9.6 5.3-2.3 12.7-3.5 22-3.5 11.4 0 20.1 2.1 26.1 6.4 6 4.2 9.6 11 10.7 20.3l-26 1.5c-.7-4-2.1-6.9-4.4-8.8s-5.3-2.8-9.2-2.8c-3.2 0-5.6.7-7.2 2-1.5 1.2-2.5 3-2.4 5 0 1.5.8 2.9 2 3.8 1.3 1.2 4.4 2.3 9.3 3.3 12.1 2.6 20.7 5.2 26 7.9 5.3 2.7 9.1 6 11.4 9.9 2.4 4 3.6 8.6 3.5 13.3 0 5.6-1.6 11.2-4.8 15.9-3.3 4.9-7.9 8.7-13.3 11-5.7 2.5-12.9 3.8-21.5 3.8-15.2 0-25.7-2.9-31.6-8.8S286.1 77 285.4 68zM6.3 97.6V8.2h46.1c8.5 0 15.1.7 19.6 2.2 4.4 1.4 8.3 4.3 10.9 8.2 2.9 4.3 4.3 9.3 4.2 14.5.3 8.8-4.2 17.2-11.9 21.6-3 1.7-6.3 2.9-9.7 3.5 2.5.7 5 1.9 7.2 3.3 1.7 1.4 3.1 3 4.4 4.7 1.5 1.7 2.8 3.6 3.9 5.6l13.4 25.9H63L48.2 70.2c-1.9-3.5-3.5-5.8-5-6.9-2-1.4-4.4-2.1-6.8-2.1H34v36.3H6.3zM34 44.4h11.7c2.5-.2 4.9-.6 7.3-1.2 1.8-.3 3.4-1.3 4.5-2.8 2.7-3.6 2.3-8.7-1-11.8-1.8-1.5-5.3-2.3-10.3-2.3H34v18.1zM0 174.2l26.3-1.7c.6 4.3 1.7 7.5 3.5 9.8 2.8 3.6 6.9 5.5 12.2 5.5 3.9 0 7-.9 9.1-2.8 2-1.6 3.2-3.9 3.2-6.4 0-2.4-1.1-4.7-3-6.2-2-1.8-6.7-3.6-14.2-5.2-12.1-2.7-20.8-6.3-25.9-10.9-5.1-4.3-8-10.6-7.8-17.3 0-4.6 1.4-9.2 4-13 3-4.3 7.1-7.7 12-9.6 5.3-2.3 12.7-3.5 22-3.5 11.4 0 20.1 2.1 26.1 6.4s9.5 11 10.6 20.3l-26 1.5c-.7-4-2.1-6.9-4.4-8.8-2.2-1.9-5.3-2.8-9.2-2.7-3.2 0-5.6.7-7.2 2.1-1.6 1.2-2.5 3-2.4 5 0 1.5.8 2.9 2 3.8 1.3 1.2 4.4 2.3 9.3 3.3 12.1 2.6 20.7 5.2 26 7.9 5.3 2.7 9.1 6 11.4 9.9 2.4 4 3.6 8.6 3.6 13.2 0 5.6-1.7 11.1-4.8 15.8-3.3 4.9-7.9 8.7-13.3 11-5.7 2.5-12.9 3.8-21.5 3.8-15.2 0-25.7-2.9-31.6-8.8-5.9-6-9.2-13.4-10-22.4z"></path><path d="m133 167.2 24.2 7.3c-1.3 6.1-4 11.9-7.7 17-3.4 4.5-7.9 8-13 10.3-5.2 2.3-11.8 3.5-19.8 3.5-9.7 0-17.7-1.4-23.8-4.2-6.2-2.8-11.5-7.8-16-14.9s-6.7-16.2-6.7-27.3c0-14.8 3.9-26.2 11.8-34.1s19-11.9 33.4-11.9c11.3 0 20.1 2.3 26.6 6.8 6.4 4.6 11.2 11.6 14.4 21l-24.4 5.4c-0.6-2.1-1.5-4.2-2.7-6-1.5-2.1-3.4-3.7-5.7-4.9s-4.9-1.7-7.5-1.7c-6.3 0-11.1 2.5-14.4 7.6-2.5 3.7-3.8 9.6-3.8 17.6 0 9.9 1.5 16.7 4.5 20.4s7.2 5.5 12.7 5.5c5.3 0 9.3-1.5 12-4.4 2.7-3.1 4.7-7.4 5.9-13zm56.5-52.8h27.6v31.3h30.2v-31.3h27.8v89.4h-27.8v-36.2h-30.2v36.2h-27.6v-89.4z"></path><path d="m271.3 159.1c0-14.6 4.1-26 12.2-34.1s19.5-12.2 34-12.2c14.9 0 26.3 4 34.4 12s12.1 19.2 12.1 33.6c0 10.5-1.8 19-5.3 25.7-3.4 6.6-8.7 12-15.2 15.6-6.7 3.7-15 5.6-24.9 5.6-10.1 0-18.4-1.6-25-4.8-6.8-3.4-12.4-8.7-16.1-15.2-4.1-7-6.2-15.7-6.2-26.2zm27.6 0.1c0 9 1.7 15.5 5 19.5 3.3 3.9 7.9 5.9 13.7 5.9 5.9 0 10.5-1.9 13.8-5.8s4.9-10.8 4.9-20.8c0-8.4-1.7-14.6-5.1-18.4-3.4-3.9-8-5.8-13.8-5.8-5.1-0.2-10 2-13.4 5.9s-5.1 10.4-5.1 19.5zm93.4-0.1c0-14.6 4.1-26 12.2-34.1s19.5-12.2 34-12.2c14.9 0 26.4 4 34.4 12s12.1 19.2 12.1 33.6c0 10.5-1.8 19-5.3 25.7-3.4 6.6-8.7 12-15.2 15.6-6.7 3.7-15 5.6-24.9 5.6-10.1 0-18.4-1.6-25-4.8-6.8-3.4-12.4-8.7-16.1-15.2-4.1-7-6.2-15.7-6.2-26.2zm27.6 0.1c0 9 1.7 15.5 5 19.5 3.3 3.9 7.9 5.9 13.7 5.9 5.9 0 10.5-1.9 13.8-5.8s4.9-10.8 4.9-20.8c0-8.4-1.7-14.6-5.1-18.4-3.4-3.9-8-5.8-13.8-5.8-5.1-0.2-10.1 2-13.4 5.9-3.4 3.9-5.1 10.4-5.1 19.5z"></path><path d="M482.1 114.4h27.6v67.4h43.1v22H482v-89.4z"></path></g><defs><ellipse id="SVGID_1_" transform="rotate(-37.001 420.46 67.88)" cx="420.5" cy="67.9" rx="63" ry="51.8"></ellipse></defs><clipPath id="SVGID_2_"><use overflow="visible" xlink:href="#SVGID_1_"></use></clipPath><path d="m448.28 7.3691a46.5 69.307 51.634 0 0-47.057 14.383 46.5 69.307 51.634 0 0-36.469 79.637 46.5 69.307 51.634 0 0 79.006 4.2188 46.5 69.307 51.634 0 0 36.469-79.635 46.5 69.307 51.634 0 0-31.949-18.604zm-13.754 22.795c2.9464 0.12783 5.7927 1.4972 8.5391 4.1074l-8.873 8.2188c-1.4334-1.2373-2.8186-1.8554-4.1582-1.8516-1.325-0.008098-2.6867 0.56291-4.084 1.7129-1.1498 0.94634-1.8114 1.9068-1.9863 2.8809-0.18689 0.95946 0.00704 1.7897 0.58203 2.4883 0.41926 0.50942 1.0358 0.76902 1.8516 0.78125 0.81314 0.03876 2.243-0.47912 4.2891-1.5527 5.0894-2.6263 8.9616-4.2242 11.615-4.7969 2.6562-0.59923 4.986-0.54125 6.9922 0.17578 2.0207 0.70505 3.75 1.9312 5.1875 3.6777 1.689 2.0522 2.6785 4.4118 2.9687 7.0781 0.29023 2.6664-0.21089 5.2897-1.5058 7.8691-1.307 2.5649-3.5112 5.1223-6.6113 7.6738-5.4435 4.4801-10.076 6.535-13.896 6.1641-3.8208-0.37091-7.1989-2.059-10.135-5.0625l8.9238-8.334c1.4616 1.3605 2.8344 2.1833 4.1191 2.4688 2.085 0.45684 4.0747-0.093123 5.9668-1.6504 1.4118-1.162 2.2256-2.3803 2.4434-3.6582 0.22037-1.3044-0.02931-2.3943-0.74804-3.2676-0.68281-0.82962-1.657-1.2721-2.9238-1.3281-1.2668-0.056013-3.4637 0.71452-6.5918 2.3125-5.1399 2.5946-9.2984 3.8442-12.477 3.75-3.1927-0.082265-5.8205-1.3735-7.8809-3.877-1.3536-1.6447-2.1564-3.5843-2.4082-5.8184-0.24927-2.2606 0.23902-4.5914 1.4629-6.9902 1.2264-2.4254 3.5048-5.0088 6.8379-7.752 4.0899-3.3661 7.8351-5.1658 11.232-5.3984 0.42499-0.0324 0.84667-0.039745 1.2676-0.021485zm-31.721 22.154 14.32 17.4c3.0067 3.6532 4.9685 6.7027 5.8828 9.1484 0.92884 2.4337 0.95488 5.1209 0.08008 8.0625-0.86025 2.9297-2.8185 5.6524-5.875 8.168-3.2312 2.6593-6.0935 4.2829-8.5879 4.8711-2.4944 0.58815-4.9187 0.44737-7.2715-0.42383-2.3502-0.89774-4.6307-2.5112-6.8418-4.8418l8.3926-9.0684c1.1765 1.3998 2.1631 2.3455 2.959 2.8379 0.79589 0.49241 1.6444 0.72257 2.5449 0.68945 0.60602-0.034913 1.2584-0.34102 1.957-0.91602 1.1062-0.9104 1.5794-1.9825 1.418-3.2168-0.15883-1.2609-1.0413-2.8661-2.6465-4.8164l-16.244-19.736 9.9121-8.1582z" fill="currentColor" stroke-miterlimit="10" stroke-width="0" style="paint-order: stroke;"></path></svg>